<mxfile host="app.diagrams.net" modified="2022-02-12T09:57:30.782Z" agent="5.0 (Windows NT 10.0; Win64; x64) AppleWebKit/537.36 (KHTML, like Gecko) Chrome/98.0.4758.82 Safari/537.36" etag="kmYLYNbhGrIA-pf0R5QK" version="16.5.3" type="github">
  <diagram id="kWmiMoS3S7CtAGdgOtzf" name="Page-1">
    <mxGraphModel dx="2249" dy="794" grid="1" gridSize="10" guides="0" tooltips="1" connect="1" arrows="1" fold="1" page="1" pageScale="1" pageWidth="827" pageHeight="1169" math="0" shadow="0">
      <root>
        <mxCell id="0" />
        <mxCell id="1" parent="0" />
        <mxCell id="qWBmQAPHkrgnu29Ou_Wy-3" value="数据爬虫" style="rounded=1;whiteSpace=wrap;html=1;fontSize=17;fillColor=#dae8fc;strokeColor=#6c8ebf;" parent="1" vertex="1">
          <mxGeometry x="160" y="230" width="120" height="60" as="geometry" />
        </mxCell>
        <mxCell id="qWBmQAPHkrgnu29Ou_Wy-4" value="数据存储" style="rounded=1;whiteSpace=wrap;html=1;fontSize=17;fillColor=#dae8fc;strokeColor=#6c8ebf;" parent="1" vertex="1">
          <mxGeometry x="160" y="360" width="120" height="60" as="geometry" />
        </mxCell>
        <mxCell id="qWBmQAPHkrgnu29Ou_Wy-9" value="数据分析" style="rounded=1;whiteSpace=wrap;html=1;fontSize=17;fillColor=#dae8fc;strokeColor=#6c8ebf;" parent="1" vertex="1">
          <mxGeometry x="160" y="490" width="120" height="60" as="geometry" />
        </mxCell>
        <mxCell id="qWBmQAPHkrgnu29Ou_Wy-35" style="edgeStyle=orthogonalEdgeStyle;rounded=0;orthogonalLoop=1;jettySize=auto;html=1;exitX=1;exitY=0.5;exitDx=0;exitDy=0;entryX=0;entryY=0.5;entryDx=0;entryDy=0;fontSize=19;" parent="1" source="qWBmQAPHkrgnu29Ou_Wy-12" target="qWBmQAPHkrgnu29Ou_Wy-3" edge="1">
          <mxGeometry relative="1" as="geometry" />
        </mxCell>
        <mxCell id="qWBmQAPHkrgnu29Ou_Wy-36" style="edgeStyle=orthogonalEdgeStyle;rounded=0;orthogonalLoop=1;jettySize=auto;html=1;exitX=1;exitY=0.5;exitDx=0;exitDy=0;entryX=0;entryY=0.5;entryDx=0;entryDy=0;fontSize=19;" parent="1" source="qWBmQAPHkrgnu29Ou_Wy-12" target="qWBmQAPHkrgnu29Ou_Wy-4" edge="1">
          <mxGeometry relative="1" as="geometry" />
        </mxCell>
        <mxCell id="qWBmQAPHkrgnu29Ou_Wy-41" style="edgeStyle=orthogonalEdgeStyle;rounded=0;orthogonalLoop=1;jettySize=auto;html=1;exitX=1;exitY=0.5;exitDx=0;exitDy=0;entryX=0;entryY=0.5;entryDx=0;entryDy=0;fontSize=19;" parent="1" source="qWBmQAPHkrgnu29Ou_Wy-12" target="qWBmQAPHkrgnu29Ou_Wy-9" edge="1">
          <mxGeometry relative="1" as="geometry" />
        </mxCell>
        <mxCell id="qWBmQAPHkrgnu29Ou_Wy-12" value="Python Flask&lt;br&gt;实时疫情&lt;br&gt;数据分析系统" style="rounded=1;whiteSpace=wrap;html=1;fontSize=19;fillColor=#dae8fc;strokeColor=#6c8ebf;" parent="1" vertex="1">
          <mxGeometry x="-50" y="310" width="120" height="160" as="geometry" />
        </mxCell>
        <mxCell id="qWBmQAPHkrgnu29Ou_Wy-42" style="edgeStyle=orthogonalEdgeStyle;rounded=0;orthogonalLoop=1;jettySize=auto;html=1;exitX=1;exitY=0.5;exitDx=0;exitDy=0;entryX=0;entryY=0.5;entryDx=0;entryDy=0;fontSize=19;fillColor=#d5e8d4;strokeColor=#97D077;" parent="1" source="qWBmQAPHkrgnu29Ou_Wy-43" target="qWBmQAPHkrgnu29Ou_Wy-70" edge="1">
          <mxGeometry relative="1" as="geometry" />
        </mxCell>
        <mxCell id="qWBmQAPHkrgnu29Ou_Wy-43" value="登录" style="rounded=1;whiteSpace=wrap;html=1;fontSize=17;fillColor=#d5e8d4;strokeColor=#97D077;" parent="1" vertex="1">
          <mxGeometry x="1000" y="300" width="120" height="60" as="geometry" />
        </mxCell>
        <mxCell id="qWBmQAPHkrgnu29Ou_Wy-45" value="通知查看" style="rounded=1;whiteSpace=wrap;html=1;fontSize=17;fillColor=#d5e8d4;strokeColor=#97D077;" parent="1" vertex="1">
          <mxGeometry x="1000" y="380" width="120" height="60" as="geometry" />
        </mxCell>
        <mxCell id="qWBmQAPHkrgnu29Ou_Wy-47" value="果蔬识别" style="rounded=1;whiteSpace=wrap;html=1;fontSize=17;fillColor=#d5e8d4;strokeColor=#97D077;" parent="1" vertex="1">
          <mxGeometry x="1000" y="460" width="120" height="60" as="geometry" />
        </mxCell>
        <mxCell id="qWBmQAPHkrgnu29Ou_Wy-49" value="通用识别" style="rounded=1;whiteSpace=wrap;html=1;fontSize=17;fillColor=#d5e8d4;strokeColor=#97D077;" parent="1" vertex="1">
          <mxGeometry x="1000" y="530" width="120" height="60" as="geometry" />
        </mxCell>
        <mxCell id="qWBmQAPHkrgnu29Ou_Wy-51" value="统计分析" style="rounded=1;whiteSpace=wrap;html=1;fontSize=17;fillColor=#d5e8d4;strokeColor=#97D077;" parent="1" vertex="1">
          <mxGeometry x="1000" y="610" width="120" height="60" as="geometry" />
        </mxCell>
        <mxCell id="klri-LxLxwhWZhLJ-TEM-2" style="edgeStyle=orthogonalEdgeStyle;rounded=0;orthogonalLoop=1;jettySize=auto;html=1;exitX=1;exitY=0.5;exitDx=0;exitDy=0;entryX=0;entryY=0.5;entryDx=0;entryDy=0;strokeColor=#97D077;" parent="1" source="qWBmQAPHkrgnu29Ou_Wy-65" target="qWBmQAPHkrgnu29Ou_Wy-43" edge="1">
          <mxGeometry relative="1" as="geometry" />
        </mxCell>
        <mxCell id="klri-LxLxwhWZhLJ-TEM-3" style="edgeStyle=orthogonalEdgeStyle;rounded=0;orthogonalLoop=1;jettySize=auto;html=1;exitX=1;exitY=0.5;exitDx=0;exitDy=0;entryX=0;entryY=0.5;entryDx=0;entryDy=0;strokeColor=#97D077;" parent="1" source="qWBmQAPHkrgnu29Ou_Wy-65" target="qWBmQAPHkrgnu29Ou_Wy-45" edge="1">
          <mxGeometry relative="1" as="geometry" />
        </mxCell>
        <mxCell id="klri-LxLxwhWZhLJ-TEM-4" style="edgeStyle=orthogonalEdgeStyle;rounded=0;orthogonalLoop=1;jettySize=auto;html=1;exitX=1;exitY=0.5;exitDx=0;exitDy=0;entryX=0;entryY=0.5;entryDx=0;entryDy=0;strokeColor=#97D077;" parent="1" source="qWBmQAPHkrgnu29Ou_Wy-65" target="qWBmQAPHkrgnu29Ou_Wy-51" edge="1">
          <mxGeometry relative="1" as="geometry" />
        </mxCell>
        <mxCell id="klri-LxLxwhWZhLJ-TEM-5" style="edgeStyle=orthogonalEdgeStyle;rounded=0;orthogonalLoop=1;jettySize=auto;html=1;exitX=1;exitY=0.5;exitDx=0;exitDy=0;entryX=0;entryY=0.5;entryDx=0;entryDy=0;strokeColor=#97D077;" parent="1" source="qWBmQAPHkrgnu29Ou_Wy-65" target="qWBmQAPHkrgnu29Ou_Wy-47" edge="1">
          <mxGeometry relative="1" as="geometry" />
        </mxCell>
        <mxCell id="klri-LxLxwhWZhLJ-TEM-6" style="edgeStyle=orthogonalEdgeStyle;rounded=0;orthogonalLoop=1;jettySize=auto;html=1;exitX=1;exitY=0.5;exitDx=0;exitDy=0;entryX=0;entryY=0.5;entryDx=0;entryDy=0;strokeColor=#97D077;" parent="1" source="qWBmQAPHkrgnu29Ou_Wy-65" target="qWBmQAPHkrgnu29Ou_Wy-49" edge="1">
          <mxGeometry relative="1" as="geometry" />
        </mxCell>
        <mxCell id="klri-LxLxwhWZhLJ-TEM-9" style="edgeStyle=orthogonalEdgeStyle;rounded=0;orthogonalLoop=1;jettySize=auto;html=1;exitX=1;exitY=0.5;exitDx=0;exitDy=0;entryX=0;entryY=0.5;entryDx=0;entryDy=0;strokeColor=#97D077;" parent="1" source="qWBmQAPHkrgnu29Ou_Wy-65" target="klri-LxLxwhWZhLJ-TEM-8" edge="1">
          <mxGeometry relative="1" as="geometry" />
        </mxCell>
        <mxCell id="qWBmQAPHkrgnu29Ou_Wy-65" value="百度AI识别&lt;br&gt;H5移动端" style="rounded=1;whiteSpace=wrap;html=1;fontSize=19;fillColor=#d5e8d4;strokeColor=#97D077;" parent="1" vertex="1">
          <mxGeometry x="800" y="430" width="110" height="160" as="geometry" />
        </mxCell>
        <mxCell id="qWBmQAPHkrgnu29Ou_Wy-70" value="修改个人信息&lt;br&gt;&amp;amp;注销" style="rounded=1;whiteSpace=wrap;html=1;fontSize=17;fillColor=#d5e8d4;strokeColor=#97D077;" parent="1" vertex="1">
          <mxGeometry x="1256" y="300" width="150" height="60" as="geometry" />
        </mxCell>
        <mxCell id="klri-LxLxwhWZhLJ-TEM-8" value="项目简介" style="rounded=1;whiteSpace=wrap;html=1;fontSize=17;fillColor=#d5e8d4;strokeColor=#97D077;" parent="1" vertex="1">
          <mxGeometry x="1000" y="690" width="120" height="60" as="geometry" />
        </mxCell>
        <mxCell id="9YT81I011mUq_QdkkGGP-1" value="" style="shape=image;verticalLabelPosition=bottom;labelBackgroundColor=default;verticalAlign=top;aspect=fixed;imageAspect=0;image=data:image/png,iVBORw0KGgoAAAANSUhEUgAAAGQAAABkCAYAAABw4pVUAAAABmJLR0QA/wD/AP+gvaeTAAAWI0lEQVR4nO1deZhUxbX/1e19naFn6+kBZmNYZJFhE3AwY6IiQtTgM3kvL1EMJgPRqInfU6MENDwlwS9qjIiGoKBP8p6KRgUVHgiKoA4IgqwzQ7PMwjBrb9PLdPet98ft7tvdt6en9x7y+H3ffHNv3bpVde/v1qmqc06dBi7jMi7jMi7jMi7jMoYS2tralB0dHepstyNZkGw3IBbYbLYir9c7BUAVwzBVlNJRAMoBqHx/w8Ju6QNwnhDSQik1EkKOUEqPaDSa/YQQV4abHxeGJCFtbW1KlUr1A0LI9QBmA6hKRbmEEDuAPSzLfujxeDbk5eVZUlFuKjGkCLHZbFeyLHs/gH8BoElzdWYALwN4WqvVdqW5rpgxJAixWCx5hJDllNJ7AIgyXH0HgF9otdr3MlxvRGSdEIvFMgvA+wDykymn3+UGCCCVShK63+12P6fT6X5DCKHJtCNZZJUQi8XyfQD/A0ARLZ/Xy+LcmYswnm5DW2s3LrT14EJbNywWO5yOfvT1OUEp9x4ZhoFGq0RengaFRbkYWVaEsnI9rphQCp0uuhTs6el5vbS09M5skpI1QqxW6zhK6X5wsyQBbFYHPt11GF/sPYGGk81wOvuTrnNkaSHm3jQd190wBQqlLGKehoaG9dOmTbs76coSRFYIoZTKrFZrPYBJ4desFjveeG0ntn98AB63N/YyRSIQSgGWHTRvTq4adfcsQM01EyK1jW7atGnp0qVLX4658hQiK4RYLJbFAP4Wnn7qZDNWLn8dFrNdcI9XpUJ/Ti48ajW8KjW8ShW8cgVYMQMqlgCEexTG4wHT3w/G5YLI3gexzQJJrwnS3h4QbyjBt952Ne76+Y0gJPQ12O32rtmzZ88zGo0HUvjYMSFbhBxGWO8wnr6AR36zLkQ09eflwzF8OJxFerDSyCImVhCvF4rWFqgbTkLkdAbSF/5wDhYtnivI/8477/xt0aJFj4GbhWUMGSfEbDZPJ4TUB6exLIvf3LsWxtMXuHOZHKYpU+DKK0h5/YzbjZzDByFvbwcAEEKwfOVPMXX66JB8Nputo7KyconD4XgPwOByMFXty1RFfhBC5oSnHT5kDJBBxSJ0za5JCxkAwEok6J06A67CQq4+SvHKXz8Cy4ZOrNRqdeFdd901AUBFWhoyADJOCIBZ4Qn79hwNHNvLKuFVRZx4pQ6EwDR5ClixGADQfL4TB746Jcg2b968iQDGIYOSJBuEjAlP8PcOAHAU6TPSCFYqg6O0PHC+/6uTgjyVlZXjAKgB6DLSKGSHEMHDXbzYGzhOe+8IgrOoKHB84vh5wXWNRuNva3GGmgRxpioKQm54gsPOz6xYCaf6GJkrx4rryjGmQInDF2xYufMs2q2p1Zx7NNrAcU+3VXBdoVDk+A7TM6BFQDZ6iDI8we328Ce+NcETN1RgUrEaMjGDGSO0eOTa0pQ3xD+GAEBfn1NwXSqV+tsqaHO6kA1CBh0gGUIwriD0HUwoSoMoC1oQ+nVh4Tl8/+WprzwyskGIACErZUrBUorjHX0heb5tt2W4VSGQZqqibIwhMWH5diMe+24ZrihS41CbFat2nctKOywWyybf4aag5D4A7b6/vYSQbWq1+nNCSNIa0KFBCAFAg0+AFrMLS98Vrg2GCFQAKn1/V1NKH7JarR0Wi+UZm832F4PBIFTGxYiUEdLZ2amRSqU14BZ+swghBnBT3GEAoiqiCAiojxHuKOt2s0RQCOAPKpXqHovF8mOtVvt5IoUkTYjJZJrGMMwSAP+KAWwbgyFkCEm2QVkGIWQEpXR3T0/PozqdbnW89yc8qPf19RVbLJbXGIbZD2AxEiTjnxGEEJFYLP6j0WhcGe+9CfUQs9n8U6/X+wIA7aCZY0D4LAskOyLr5rnLYsonk0swbJgGo8cMx4xZY3H1nAkQiYTfdn5+/mN79uxxzZkz5z9jbUPcT242m+8nhDybyL0D4bYFjwcWh9ct+zkYUWKOJ16WYrexFy3m2Ff0xVuSdzYpNuhQd8/3MWWa0H2MZVn3Cy+8cNuyZcs+iKWsuF6q2Wx+ghCyfKDrfX1O7NtzDMePncPpxjaYTDbYbI64TLGbtzwOiSTxoa3Z5MTC17+NOX+t8SBOHW9OuD4/CENw5103YOEPBdYFdHR0NM6cOXNBV1dXw2DlxPzkFotlAYDfRbpm6rXhvzbuwKefHIbL5Y61SAEYhhGYU9ONp5+tCxzL9v00pnuc/QzaekX4skGJf3ypgdkuAmUpNqzfBoVShnkLZoTkLywsrHryyScfqKur+y04B70BEdPT2+32Eo/HcwQRNLWff3YUL/75PdhsjpgeZkAwDNQTx+K622shYhIjxeFmsa2hOy6Rtf9X0wPHsRISDKuTwVNv5+Pgac6TSSRi8Ke/LEVFZaiC2Gw2t44aNepnLpfrfxFlMhnTk1sslnUABK4xW977Eute2goaZG1z5+TAYSiBe5iOc0KQyUATHBPSDamIwd5fTuVOqBeyLxYlVI7bS/DQxiIcb+aWW6PHDsfqZ+vAhH1Ya9eu/dPDDz+8BsCZgcoadNprNpurAAhaeqD+FNat5cnwKpTomTELXXNq0VdZhX5dHrxK5ZAlAwDyVbyXI/EKtb2xQiKiePS2Lsgk3LtoONmCgweEw8XcuXOvAXAFonSEQQkhhDyIsLHGYrbjmdVvBzSk7txcdH2nNmCnvlRQEEQIXN3JlZXjwcJZvDP9e+/sE+QpKyubpNfrCwCUDFROVEIopSIAPwhP3/zmZ7BZuTHDq5Cj56rZYMWJ+dRmExP1/P4eYm9Nurybp1sh9gmEI98Y0d0VutuBYRjZr3/964ng9rZERFRCbDbbNeB0NAE4nf3Y+sFXgXPL+EkBK9+lhmsr+X0+jDV5RaZO7cXkcu5DpZTiQL2wzJkzZ04AZxKOKMsH6yE3hqft//IU52kOwKPWwKnPmLk5pTBoZZig92l7KIWo95uUlHtVFT8WfXPwtLBeg6EMHBkRX9xghEwNTwtm3WkYUBQOefxy1nAwfvdTy7GkxxA/JpTy0/+mRqEYzMvLGymVSgmAIsFFRCGEUkoIIdXh6cGVuAourUHcj/FFKlxfxYsrceuWlJVdWuCBVMxNdjoumgJjbaAusVg+f/58PYT7IgFEIcRsNpchbCHodPajpcW3+4sQuHNSolvMKHIVYjx1YyXfO8xHQUzHUla+iKEoL+QMh5RSnG5qE+Spra0tA0eIYPo7ICEMw0wOTzM2XQisO9waLSgzdNcYkaCUMHhmfhUMWm4BR7wOiJteSXk9VQbekhuJkNGjR48Et5QQbOMeUJdFKZ0crlcynuYLd+cI3KuGNEq0Mjz7/VEo1/m8WSiFuGkdiKsz5XWVFfL6vNYW4X7S/Pz8PN/hMAAhDmEDEkIIEcyVm8/zjfdoLw1xJWYIfjChAEtmlkAr4x9XfPYNMN3701Jnjop3lg9fiwCAWq32jx+5AEJcJqP1kOLwHtLZwSsqWVly+zXSDb1GhjnlOfi3K4swIjfIrYp6ITZuhOjirrTVnaPgzQ0mk9B9SS6X+0WVwMoaTf0u2BXb28v3LlaaMVeliNDIRBhToEKJVoZchRgihiBPKUGBSoKSHBmq8pWCEZO4OiFuWAvG2pjetil5QvpdHsF1sVjsf3mCza7RRJbAfdLl5GUjK8k8IVq5GPPH5mHu6DyMLVRCFKPthHgdYNo+gqh1Kwib/ObRwaCQBmm/3REJ8b93wUuM1kMEMim4cJqEVS9eKCQMfjbdgB9NKoJCEqNfBvWCsZ0G0/klmM69IN6EXaXihs3Bt1EqE6qVPB6P/8sWTFOjvVXBpyQS8/cTj5D5dGBKiQZPXF8OvUY4ZjH2FsBxAcRtAjx2ToXutoC4OkBsZ5NSqScDaxAh8giEeL1evwUtLkIETxNcOONOf9e/fVIhHrxmZIhooh4nJBc+gqhjN+DqSXsbEoHZzr/nYRGCFdjtdv9gLHA2iEaI4GlzcvlJAelP3HYeC/69Wo8HakYEzinrgaTtA4ia3wNo7E4T2UCvjSckL1+4PDCbzf53GzshhJDWcBf9/IKcwLGoP31hp24YrcP9QWQQx0VIj/8BxDVkgvZEhbGDlyQjS4U6xK6uLr8mUyCFoq1DBHu8SobzM2GxVbjjKBUYmSvHsu+WB6asjKUB4uOrQdghHXcsBI1t/HhXOUqoZT9+/LjflV/gGRJN23skPK1ylCFwLDaZ4mtljHi4tjQwkyKubkhO/fmSIsPlIWju4r5zwhCUVQg3sW7btu2s71Aw9RuQEELIwfC0yipDwG9KYrHEFFckHswamYMZI3wyl1KITz4HuIdc0LeoONMuhZfl3tHw4fmQy0OXGi6Xy/bJJ5/4ZW9v2O0DE6LRaBoRpvhSqxUoLOKUioT1QmJLrdi6Yyr/NYm69oLpOxsl99DE/tO8miZYovjR1dUV7AIkmDhF6yEsAIFdc1QVbyWU9qRu2mnQyjB1ONc7KKUQnX87ZWVnEru+5TXqM2aNE1xvbm72f2UuxCOygMhi68pqPtKEtONizA0dDDVlOYGB3NxzDiRFJtVM4rNjSrR2c+OHTC7B9BmCGAnYsWOH/yMXiCtgcJv67vC0GTPHBsYReVdnSGSdZDDZwC+g5KaMR0VKGma7CC9t462yC26eBZk8dJXudDrNzz//vN8pIX5CbDbbdl9o1QB0eVpMnOQzlbAslOdSI+crdLziU2NPnUk1E7A6GDz6eiG6rVzv0GiVWHh7jSDfiRMn6p1Op38mJDQlYhBCDAaDnVK6PTz95oWzA8eqM00QOZJ0tAZQqOZnI6Q/PVPqdKC+UYElLxnQ1M61nzAEDz58OzTaUGU5y7Le1atXf+g7dQKIaKqMRWW7EcCtwQnTZoxB1ZjhaDzVAuLxIvfQ1+iZeTVogl7rAGfv9oO4o3rsZw0uD0GvVYROqwjHzsux+6gSZy4GfUgMQd0vF0TcuHP06NFPt27d6h90mzGAB/yghGg0mvetVusJcGGKAAAMQ3DP/bfgwV+thdfLQtrTDd3+L9A7ZXrCXowhWxDY2PVk3oI58FbeCcokZsHc/OZn+Ptrn6A/gt0iHqg1Ctz7wK2YXTNecM3lctkeeeSRzb5TFoAw9JAPsThbswAEu0krKotRd8+CwLm0sxMFu3ZA3XgKErMZxJsZ9TyrvzZhMgDOKToZMmRyCeYtmIG16x+ISAallK5Zs2bN559/7h/EjQAGDEsRk4yhlIqsVuseRAg+9s5be7Dxle0he0QSBWEIZteMx/Jrt8Z8j7egBt6KO0FFiYUj+dGtv4fDEZspQSIRQ61RICdXhVFVJRg/oRSza8YPGHIWAHbt2vXmLbfc8g/fqQvAR4igw/IjZqFvsVjGUEq/IYQInvzQ1014ec0HaGtNfu1ACPDx8syF0bj5yZFwebjX8Nb7KyCLYFBKEHTHjh3/vXDhQv9mTwrgUwAXotwT+z51rVZ7ilJ6HyIMRtVTR2HNuvvxH7/9Ea65dhKKDTqBDidWRA7Kkz54gtRxYnFqHP/cbrf9tddeezGIDAD4FoOQAcS5Tz03N3dda2urQaPRPB5+TSRiMKd2IubUToynyABi3SOearCUFxLhW9ASwdmzZw/dd99963fv3h2sVzoM4Hgs98ftqVBSUvLEoUOHZBUVFQ8RQi4tX9IICO6Rie4A9ng8zmPHju199dVXd7zyyivB8tYN4ACAmFfPCbmOVFdXP7p+/fpj8+fPf06pVCb1qwaXEliWdbtcrj6Xy2Xt6+vrbWpqaqyvr2/csGFDQ3Nzc7gOqRUcGXG5uyTsy7N48eI3Kioqjixfvvy+G2+8caFSqcxY5M5MQqvV/jiO7B5wvaEJA+iqBkNSzlVGo/HbRYsWParT6T6uq6ubXFtbe2V5eflolUqVq1AocsRiccZC40WFTAd3+R1g1RVgLA2QnHkdSE4bwIKbwvaDm8J2gVOFdIEjJWGkwtuts6en591Vq1YdXrVq1QQM8lsgQEiUtoygv/IXoLncoo3NvwpuRgzJyefiLebvKW9YBKTK/ZAF102N4EKq6n3/5eAIymLkOgKqDY3rTnOuyFJbBkeqXxQL4KLvLxreQNiilBAS2Pee2ghNFIyjBawqaHeFLeZJT8bjqWUrKqlAv65S8cONzZXaZokb/wrSx81GGZsRktPcrim3l2c90grd7XZn3N0lW6KkA2GbHofp1IEANs2dElwxInXvgthbID28DGDEAMuPuXYnT0gkzYLb7c54bNps9RDBfuFx4/nI1ftOpSmQNBs6AWru5nuFvlg4a3c6nf7gwen1mw1CVgghhHwWnjb9Kt4h4MOvNTDZ09+0L4KIr4jgYdjZ2ek3s/5zExLJLDz9qrEYPoKLed/nJHj63fyAw1k60NwlwQf7eceKSLaMhoYG/1ar9Lv6+5AVQjQaTT24KTLfEIZgcd28gD7pQJMCv38zH33O1JOyv1GOBzfo4XJzZVeNLsHEK4U/pLNz506/h0jGbMrZ/B3DpZTSF8PTN67fjs1v8hItT+PBT75jxvcm9QXiUSWCXpsI+04psPOIGsfO8wYlhVKGP/7p5wIf3N7e3ubS0tKHfadfAxg0XmIqkDVCKKVym812ilI6MiwdG/62De++HRoYWiahGDfchSvLnajSu1Cs8yJH6YVGwRk0WAr0uRg4XQy6bCK09YjR2i1BS7cYJ1tkuGgSTiiH6TT43e9/EuKN6cemTZteWrJkif/L+BgJ6qbiRVZjelut1lpK6U5EEJ179xzFy2u2wNQbfeYpYijEIgTETyyQSiWYe9M0/PiO74Wsf/zo7u4+W11dvdxkMnnArZk+irnwJJH1IOsmk+kphmF+G+maw9GPndsPYtuH+3HubHJuqwqFFGPGjcTVc8aj5jsTIxIBcPv/7r777kc3b97st+59iSgxElONrBNCKSWtra2varXaO6Pl6+2x4tvDZ1D/1UmcMbajt9uKPrsz4FxBCIFKJYdCKYVGo4ShJA/FhjwUG3QoryxGeYUeDBN9DsOyrGvNmjXPP/bYY4f81QLYjgz+jmHWCQE4Uo4ePbqxtLT0J4izTf5gapG2H8cDp9NpWbFixdNr1671Rx3zANgGIKMbVIbKL+zQiRMn3vHWW2/d73A44ho8pTJJUmRQSunJkyf33HTTTQ8FkeEFsA8ZJgMYIO5ftvD+++/Xnzhxot5gMOTq9fqRIpEobcEc3W6348SJE3tXrlz58r333ruzra3NrzxzAtiNwTXWacGQEFkRUFxVVXXtihUrrq+urp5sMBiuEIlEScfysFgsF1paWhrr6+uPPPXUUwfa29uDV+AUwDkAhxBhd2ymMFQJAbjQHmMBVOn1etWSJUvG1dTUTDAYDKW5ubkFEolEIZFIlAzDiAFO9LjdbrvH43H09/e7rFZrZ1dX18Xm5ub2pqami1u2bDEeOHAgkghygwuR1IAIZoFMYygT4ocEQBm44MOFCBOzer1eCoC0t7fHo6+3grOBtwNoQYQN/NnCpUBIMETgSNGDC/6lBkeYBPwEhYL76j2+/3ZwBPj/epFFkfT/CSIMsUnKZVzGZVzGPzn+D094uwkJhNXoAAAAAElFTkSuQmCC;" vertex="1" parent="1">
          <mxGeometry x="-170" y="290" width="100" height="100" as="geometry" />
        </mxCell>
        <mxCell id="9YT81I011mUq_QdkkGGP-2" value="" style="shape=image;verticalLabelPosition=bottom;labelBackgroundColor=default;verticalAlign=top;aspect=fixed;imageAspect=0;image=data:image/png,iVBORw0KGgoAAAANSUhEUgAAAGAAAABgCAYAAADimHc4AAAABmJLR0QA/wD/AP+gvaeTAAAODUlEQVR4nO2be3Qc1XnAf9+dlWXJlu2VbQyy2J07u9gBzBuSJgFsCI/yTBs4aYgJcNIcOBQKoZySBE5fSfMgPSFpTwM4NKExzxJKDDnHvGIeCaEJCSmFGIdktTMrS4DNsS0jW1irnfn6x8zKK1uyJNu85/fPnrlz753v3m/u3O9xF1JSUlJSUlJSUlJSUlJSUlJSUlJSUlJSUlJSUlJSUlJSUlJSUlJSUlJSUlL2CrJjgbX2bBHZqKr9vu//39sh1PsJM0rZYar6D8Apb7Uwk6VQKHzEWrtsyZIlmXeALEVr7W2e531sMu12UkC1Wr0RWADkCoXCUfl8/sC9JSQgCxcubJto5WKx2JzL5bIdHR2tjeXW2uOstSuiKPoFcPHatWvb96KMk6JYLB7sed7NURStBs5X1SMn036nN6e5uXmxqu4LXBJF0XHGmEM7Ojqmv/zyywN7QdiDqtXqc9baDDAEbAGqwFZgGjAlqZoFCMMQx3FwHOdRkhXpuu6FwH+OGEQm88aeyrY7FIvFGWEYPg3MaCiOJtPHiBVQKBQWqeq9xBPRBPwKeLq5ufkRa+11hULho3sicKlUWi0iRwK/T/rPAlVV/aGqfltEviki3xOR60XkbmLlICJd9T6CIFguIkuB4UnfunVrbU/k2l1KpdLrTU1NBeCeepmITEoBIzbhefPmTWttbd0C/JF4kl4VkQdUdXlSd5aIfLalpeWO1atXV3dXcM/zPqaqP00ub/N9/4LR6rmu+3ERWQF8zff96xrvWWv/HbgMwHGcqaVSaXB35dlTXNfdV0ReAVDVq4Ig+M5E2w6vANd1T21tbb07uewknuyXgTZV7QB+kTzgBwMDA8+7rvtnrutO3R2Bq9Xq7xsudax6QRDcDzwK9I1ye7iPzs7OcHfk2FsEQbAOqMsw5nhGIwPguu5iEbkHGAQ2AJuAj6rqscSrYLqqrheRa4CXVFUcx+lR1b+y1lrHcW4ulUqrJ/rQpqamCX8ypkyZcs4Yt962N34UlFgBzmQbZgBEZAHxhtiRlBsReSCKoseB9caYfsdxLq0vc9d1p27ZssVpaWm5VkTODMPws9ba83zff2DvjGc7L730Uv94dfr7+3fyZ95GJiVLxvO8L6rql4HHgUERuT+Xy/1tpVI5EVgfBMFzEE+653mHqOqfAMe2trYe6zjOEf39/WFra+tpwELXdacGQbBtrw9pHLZt2/ZOUsCkyKjqZSJyZRRFr4hIFEXRkv7+fhGRuaq6n7X2O8ABQFsURfcaY+6IougnwOJSqfR60s+9e1swz/NWAxeVy+Vfj1d3cHDwHaMAY8zkVgDQo6oHAyeJyE3AGRs3bpyjqh8RkQLwCvB37e3ty1999dUZvb29G4rFYiGKogzxcpvUpjMRPM9boKoHqeq4nx+AWq22q0GbfD5/qjHmQlVdJCL7AIGqfi0IghVjtBFr7bnAFcAHiM3l14BeYJnv+7fs4nnDslhrv6KqBRHpF5E+krmKoigSkWW+71cywErgChGZo6qfSNq2GGP6VfVCx3EeK5VKPb7vQ7xBU6vVzjHGHJHL5VZ2d3dvGm+CxuEEa+2yZJCtItKqqgcBVKvV7ol0MJYC8vn8hx3H+Y+kv9uI7fW/BI4RkXvy+fxhlUplzY7trLX/AlwN/EREvgBMVdW/AI4HrgHGVICqDstijHlcVYuqerHq8Hv6HPCiMaYJIBOG4R2O4/xTcnOdqm4xxjwfRdHMTCbzYBRFLZ2dnS09PT1vNHRcAtY2NTXNJraY9oRm4tBHm6pOBeYC+wDRRL3voaGhnUIqyX71M1XNAA/5vn8hoLlc7nbHcV4CmkRkMTBCAcVicW4Yhp8H+nzf/zjbV/hN1tp/Ay7L5XLZXbx4wwro6up6zFp7FPApVV0JXB0EQaMJjunu7i4Dv0uu54lIQVVPAfqGhoYyIjIjk8mc3dDGKZfL9wF/DMNwzkQmaBwe9H3/BN/3jw6CYJHv+/uq6p1MwpqYM2fOTnWjKOon9hUeqlar55NMZDLeXgAR2SmGVKvV5hObkzM8z1vUcEvz+fxVqvqlCYrlJCvp66p6aRAEZ+w4+bDdDF2lqocQm6IbVPUbQRDc7LruqVEUnWyMeaihTZgMcI4xZtJ27wRQY8w3VPXTE20w2icoCIIAOGSMJoMwetggk8mUwzCsAlNU9RnP85aFYXh9pVJ55YknnqgB148jjixcuLCtWq3eCZwJfCYIgtvHqmwAVPWx5Ho6kBeRk6y154vIX0dR9N0oip6qd15vOG3atKcSD3mvUy6XXxCRMyZaPwzDCa2WBQsWzHFd9xKgAKCqO3nQiWV3LfGKmaqqVxpjuqy1/1osFjsn8JgTq9Xqr4knH1Ut7KqyAXAc50mgAjyflPcCVRG5qVKpBI7jzPU8L9fZ2Tk1n8+fUCgUFg0ODuaJv9dvCuVyeeVE60ZRNKYCrLULXde9wVr7wtDQUCAil7A9BDNq4Mz3/W+JyJls3x9agCvCMHzRWvvJccT5UwBVXQ0gIl9yXffwsSobGNb6I6r6/aT8XCCnqqd3dHS01Gq1RUnEslVEojAMl9ZqtemqOuHY/pvJaApwXXeW53l3AS+KyHEi8oXW1tZ23/ePBEow+gqoUy6XV/q+v0hEPl2fTKANuNVam9+FOKva29sPIV4B/UCziNw1b968aaNVbrQe1opIfVOdp6pVYFpzc/MTInI58NtMJrNPEARPGmP+u1arPS8iPbsQ5C1jNAWIyO2q+ikgGBwcXFwul1c2RHCjHX6HKRaLc2lYIeVy+a4gCA4VkWuTslZVXTKWLCKy6tlnnx0KgiBQ1WuS4g+0tLTcwigJsOECx3FuBT5MbBE5IvItVb0ZmC4id/u+f3XdZi6Xy7/p6el5Q0R8z/PG2ujGRFWzjTJPtv2O7URkRFQ2SVGellyu2dGcTUxTjDEjMm0AYRjeYq39xx2Ko3K5/HXiMD3AiOclUeEMQBRF9aQSQRAsAx5OZDzP87wb2WG8wwoolUo9QCAia5OiDPBJYF2SRNkJY8xTick6KUTk5IbLwzs7O1sm2wex71CX4/TGG4m10ptcnuh53unFYnGG67qHu6779yLiJfcut9b+0Fr7vYbmQ8B11tp/9jxvZr3QWrsQmE9sQT28gyyHkcyliBzTUK5hGJ4H/AFAVS9xXff2BQsWDJvvI7Thuu4SEbkKqNv9T4jIxVEUzTfGOIk7vbarq2s9QLFYLIRheJXv+5ePM1kk9edGUfRlVb2IkW/RNlX9LbA8eWt2hbHWfhO4nNiJg9hi+SVwh+/73wWw1l5AnLpsHONWEbkNmJV8ngDWRVF0aaVS+TGA53nfVtXP1+USkXIURSoiC4EB4HO+7/+oYc4uEpHriZ3HOq8CP69Wq5f29vZu8DzvAFX9JVD3O0JgjYhcOtqxlK8Su+vzkqII+BHgAQuBp4E7fd+/Lcmg3WmMub6rq+vpcSaOXC6XNcZcICJbRKRPVYeSScxCnHosl8urxunGWGuvVlURkT4R6Y+iaIqINAO+7/uP1it6nneMqp6lqhljzOqmpqYHkvC2WGs/IyJD1Wp1RaOXD3FqNgzDo0WkICJtURRtNMaUarXagzt6wJ7nfSKKogOMMf3A5mTvBGBgYGDlunXrtib1jgbOVdUtSYyrzxizYjQFHA8sJVZC3dG6H/g+8BXgYFV9JgiCj0KcSRORv/F9/zQmmZBOGWVX9n3/ZyLyBtDovfW2t7c/RPy2DhhjbqzfCILgYVW90lo7VuYqZReMFUXcz3GcG1R1NnAycXhiqYgocfTUAdY4jnNWqVTqgnj/UNWWSqXy4Fsm/XuAUWM5mzdv3pLNZmeIyBBwLHGYeKmqThORFhF5knjjbOvr6/s5wPTp019vamo6Z9asWa/09fVteAvH8K5mtKOJAJTL5VujKNIkMlkDRERqwICqngkcpaqZXC5XN+lIQq6X7b///m9KjOi9yC6jmfPnz//V0NBQTkR+AxwvIuuJkxGbgdeBacaYy7LZ7JFRFK3q7u4uzZw5sy+TydybzWYf3bRp08a3YAzvanapgNdee63a3t7+mqoeKCJPARcS+wiHA0URyRCn7Nodxzm7ra3toe7u7jXZbHZbFEXL2tvbN2zatOl3u3rG+50xP0F1yuXyHxzHuQ+YDVzHyAzYemLP0ReRF5qamq4EpFwu/8AYc5qqHu953n2FQmHRKF2PkMPzvAN2dxDvZiYch8nn8/sZY64iPju0dKx6qnpaEATDCZwlS5ZkKpXKDao6R0Ru9X1/FQ3+QrFYnFur1VaISKfv+x7bT5i9L5hwRmvz5s1b5s+f/+TQ0NBxwNFAD/GJ5sbY+lYRmT1r1qx9+vr6nvE8L7dp06YPGmMeEZF+4M+z2ewXs9nsh7LZbHbmzJkG+LGIHA2c0tfXNxxdLRaLzRs3bnzPK2O3IpGJW/05VV0LLAEWE592buR/iQNmz4rI/6jqScAyEVkDHKqqlwAzROS/klCCQ3zqYDPxEZATRWS5qhpgtu/75+/WCN/h7MmBJuO67lki8kFgjap6wIeMMYPJnxTqSYt+4iDWVuJj7wPE5+n3Yfvq2Up8FH0mI/clBYZU9adBEEw4RfluYq+cKEuiokcARlVPFZEBETlYVacQRz37iBUyO2nSxih/DiHe4B8BXgA6VHW567rPJuHl9yRvxpE+yefzruM4BwKzgG3AtiiKmoiPvE8H9gX2J95HAqAShmFvW1tbaU/+d5CSkpKSkpKSkpKSkpKSkpKSkpKSkpKSkpKSkpKSkpKSkpKSkpKSkpKSkpLyPub/AXTbu/K4AMUcAAAAAElFTkSuQmCC;" vertex="1" parent="1">
          <mxGeometry x="-170" y="410" width="100" height="100" as="geometry" />
        </mxCell>
        <mxCell id="9YT81I011mUq_QdkkGGP-3" value="&lt;div style=&quot;text-align: left&quot;&gt;&lt;span&gt;&amp;nbsp; &amp;nbsp; 1. 读取腾讯新闻api数据解析后，存储到mysql数据库&lt;/span&gt;&lt;/div&gt;&lt;div style=&quot;text-align: left&quot;&gt;&lt;span&gt;&lt;br&gt;&lt;/span&gt;&lt;/div&gt;&lt;div style=&quot;text-align: left&quot;&gt;&lt;span&gt;&amp;nbsp; &amp;nbsp; 2.利用Flask的模板引擎，通过Echats 设计了中国疫情地图、折线图、柱状图等来分析疫情数据，进行数据的可视化&lt;/span&gt;&lt;/div&gt;" style="rounded=1;whiteSpace=wrap;html=1;fontSize=17;fillColor=#dae8fc;strokeColor=#6c8ebf;" vertex="1" parent="1">
          <mxGeometry x="350" y="250" width="280" height="260" as="geometry" />
        </mxCell>
      </root>
    </mxGraphModel>
  </diagram>
</mxfile>
